<?xml version="1.0" encoding="UTF-8" standalone="no"?>
<svg 
   width="291.12pt"
   height="198pt"
   viewBox="0 0 291.12 198"
   version="1.1"
   id="svg99"
   xmlns="http://www.w3.org/2000/svg"
   xmlns:svg="http://www.w3.org/2000/svg" content="%3Cmxfile%20host%3D%22app.diagrams.net%22%20modified%3D%222022-10-23T16%3A41%3A51.387Z%22%20agent%3D%225.0%20(X11%3B%20Linux%20x86_64)%20AppleWebKit%2F537.36%20(KHTML%2C%20like%20Gecko)%20Chrome%2F106.0.0.0%20Safari%2F537.36%22%20etag%3D%22yfzyDdNMX3U3SOFQIU4x%22%20version%3D%2220.4.0%22%3E%3Cdiagram%20id%3D%222bNcibfPzw40ONNjZUVY%22%20name%3D%22Page-1%22%3E7Vlbb5swGP01PG4ymFsem6RZJ3Watmpb%2BxR54IBXByPjNLBfPxPMxU2JuikLjcJLwnd85RyfQy4GnK3zDxyl8ScWYmpYIMwNODcsa%2BLa8rUEigqwXbcCIk7CCjJb4I78xgoECt2QEGdaR8EYFSTVwYAlCQ6EhiHO2VbvtmJUXzVFkVoRtMBdgCje6%2FaDhCKuUN%2Fp9L7BJIrrlU2gWtao7qymyGIUsm1nLXhtwBlnTFRX63yGacldzUs10aKntdkYx4l4zYAv39Kbz8uH72AJvyY%2F7SgvnI%2FvTKg2J4r6jnEoCVBlwhL5NuVsk4S4nAfIKnvEIijvzZQF4yJmEUsQvWUsVeAvLEShtEQbwSQUizVVrTgn4r5z%2FVDO%2B95R1TxXy%2ByKoi4SwYv7btEZVZbtsF3VjguvylMgy4CiLCNBBS4IrbdTEVDedS%2BxtYJswwN8iE11QBGPsDjQz2nkl7bBbI3lluU4jikS5EnfB1IHOGr6tRrLCyXz30huj5KfXnJvUMmreZ8Q3aiVDEueAjtfmtXF%2FomgVCZseRC2MRH4LkU7FrYy43VlUZZWsbsieXlcpitJ84xRxtuzpJ2eTHD22GSp1SD1GMOCE28OPK%2FR6QlzgfPDSu0zqwb4Ko7V48eq43nbhrmtoLiT4zV2fCnMfa5H9%2F2r%2B6yzcJ81Sn56yQd9xlq9gWtdWuD6AwfuZI9q3Wlv3FyalKd1GjyLcAVjuJ5e8kHDFfaGK7ywcIXu0J9m3dF9x3Of80r3%2BUO6z%2Blx3%2Botem%2Bx8AEAx%2FFe46LiWT2Y%2BZzRfMczn3cO5vNG86knnzWw%2BfxzUuLK9cHUP44SNnD0GBz6C57ZZ4rbJegRQ9690FnXKVM0v8A8oiRKykCSbGGJT0suSYDolWpYkzCkfTIfyOJ9FY%2BglaebxnzhieW%2BIBX8b1L1uea294foS5GqIf3NaDXp1arvN6xL0QpOnFNpJcv2H%2BJdW%2Bdvdnj9Bw%3D%3D%3C%2Fdiagram%3E%3C%2Fmxfile%3E">
  <defs
     id="defs5">
    <clipPath
       id="clip-0">
      <path
         clip-rule="nonzero"
         d="M 7 164 L 40 164 L 40 197.25 L 7 197.25 Z M 7 164 "
         id="path2" />
    </clipPath>
  </defs>
  <path
     fill="none"
     stroke-width="1"
     stroke-linecap="round"
     stroke-linejoin="round"
     stroke="rgb(0%, 0%, 0%)"
     stroke-opacity="1"
     stroke-miterlimit="10"
     d="M 51.000002 81.000003 C 88.468754 92.067712 122.708338 105.500004 164.95834 118.989588 M 51.000002 81.000003 C 95.640629 95.828129 139.078131 110.661463 164.95834 118.989588 "
     transform="matrix(0.75, 0, 0, 0.75, 0.375, 0.375)"
     id="path7" />
  <path
     fill="none"
     stroke-width="0.5"
     stroke-linecap="round"
     stroke-linejoin="round"
     stroke="rgb(0%, 0%, 0%)"
     stroke-opacity="1"
     stroke-miterlimit="10"
     d="M 164.421882 115.098963 L 164.421882 115.098963 M 164.421882 115.098963 L 164.421882 115.098963 M 163.500007 122.250005 C 163.911465 121.619797 165.328132 120.447922 167.437507 117.729172 M 163.500007 122.250005 C 164.567715 120.661463 166.067715 119.411463 167.437507 117.729172 "
     transform="matrix(0.75, 0, 0, 0.75, 0.375, 0.375)"
     id="path9" />
  <path
     fill="none"
     stroke-width="1"
     stroke-linecap="round"
     stroke-linejoin="round"
     stroke="rgb(0%, 0%, 0%)"
     stroke-opacity="1"
     stroke-miterlimit="10"
     d="M 169.937507 120.651047 C 166.447924 121.781255 164.119799 120.89063 162.187507 121.750005 M 169.937507 120.651047 C 167.411465 121.229172 164.791674 121.229172 162.187507 121.750005 M 162.187507 121.750005 C 163.468757 120.718755 164.401049 119.932297 164.95834 118.989588 M 162.187507 121.750005 C 162.697923 121.14063 163.260423 120.60938 164.95834 118.989588 M 164.95834 118.989588 C 165.041674 118.229172 164.838549 116.510422 164.411465 115.10938 M 164.95834 118.989588 C 164.718757 118.119797 164.750007 117.270838 164.411465 115.10938 M 164.411465 115.10938 C 165.52084 116.552088 167.682299 119.031255 169.937507 120.651047 M 164.411465 115.10938 C 166.229174 116.619797 168.432299 118.911463 169.937507 120.651047 "
     transform="matrix(0.75, 0, 0, 0.75, 0.375, 0.375)"
     id="path11" />
  <path
     fill="none"
     stroke-width="1"
     stroke-linecap="round"
     stroke-linejoin="round"
     stroke="rgb(0%, 0%, 0%)"
     stroke-opacity="1"
     stroke-miterlimit="10"
     d="M 51.000002 81.000003 C 87.250004 116.35938 124.802089 154.411465 166.500007 196.500008 M 51.000002 81.000003 C 80.932295 110.729171 111.760421 140.151048 166.500007 196.500008 "
     transform="matrix(0.75, 0, 0, 0.75, 0.375, 0.375)"
     id="path13" />
  <path
     fill="none"
     stroke-width="0.5"
     stroke-linecap="round"
     stroke-linejoin="round"
     stroke="rgb(0%, 0%, 0%)"
     stroke-opacity="1"
     stroke-miterlimit="10"
     d="M 163.067715 197.40105 L 163.067715 197.40105 M 163.067715 197.40105 L 163.067715 197.40105 M 166.73959 199.270842 C 168.411465 197.947925 169.630215 196.218758 170.682299 194.739591 M 166.73959 199.270842 C 168.078132 197.781258 169.140632 196.578133 170.682299 194.739591 "
     transform="matrix(0.75, 0, 0, 0.75, 0.375, 0.375)"
     id="path15" />
  <path
     fill="none"
     stroke-width="1"
     stroke-linecap="round"
     stroke-linejoin="round"
     stroke="rgb(0%, 0%, 0%)"
     stroke-opacity="1"
     stroke-miterlimit="10"
     d="M 170.20834 200.208342 C 168.468757 199.000008 165.77084 199.031258 162.781257 197.729175 M 170.20834 200.208342 C 167.20834 199.489592 164.010424 198.479175 162.781257 197.729175 M 162.781257 197.729175 C 163.911465 197.312508 165.062507 196.697925 166.500007 196.500008 M 162.781257 197.729175 C 164.151049 197.208342 165.500007 196.781258 166.500007 196.500008 M 166.500007 196.500008 C 166.697924 195.08855 167.281257 193.489591 167.729174 192.781258 M 166.500007 196.500008 C 166.947924 195.229175 167.109382 194.229175 167.729174 192.781258 M 167.729174 192.781258 C 168.697924 196.281258 168.98959 197.8698 170.20834 200.208342 M 167.729174 192.781258 C 168.229174 194.671883 169.687507 197.468758 170.20834 200.208342 "
     transform="matrix(0.75, 0, 0, 0.75, 0.375, 0.375)"
     id="path17" />
  <path
     fill="none"
     stroke-width="2"
     stroke-linecap="round"
     stroke-linejoin="round"
     stroke="rgb(59.21936%, 81.568909%, 46.669006%)"
     stroke-opacity="1"
     stroke-miterlimit="10"
     d="M 27.000001 60.187503 C 30.979168 59.390627 36.937502 61.369794 40.750002 63.729169 C 44.562502 66.098961 48.281252 70.468753 49.88021 74.390628 C 51.479169 78.317712 51.84896 83.328128 50.369794 87.302087 C 48.901044 91.281254 44.812502 96.062504 41.031252 98.270837 C 37.250002 100.479171 31.937501 101.437504 27.682293 100.562504 C 23.421876 99.682296 18.041667 96.401046 15.468751 93.010421 C 12.901042 89.609379 12.119792 84.250004 12.250001 80.187503 C 12.380209 76.119795 13.182292 71.76042 16.239584 68.630211 C 19.302084 65.510419 27.687501 62.500003 30.588543 61.437503 C 33.500001 60.369794 33.468751 62.098961 33.687501 62.218753 M 23.817709 61.000003 C 27.109376 59.552086 32.968751 60.921878 36.88021 62.411461 C 40.791668 63.901044 44.958335 66.328128 47.302085 69.921878 C 49.63021 73.520836 51.687502 79.432295 50.91146 83.958337 C 50.13021 88.489587 45.84896 94.348962 42.619793 97.098962 C 39.390627 99.848962 35.63021 100.687504 31.541668 100.458338 C 27.447918 100.229171 21.359376 98.369796 18.078126 95.708337 C 14.791667 93.052087 12.598959 88.661462 11.817709 84.500004 C 11.052084 80.328128 11.270834 74.578128 13.411459 70.69792 C 15.552084 66.817711 22.989584 62.401044 24.651043 61.197919 C 26.317709 60.010419 23.510418 63.130211 23.411459 63.531253 "
     transform="matrix(0.75, 0, 0, 0.75, 0, 0)"
     id="path19" />
  <path
     fill-rule="nonzero"
     fill="rgb(0%, 0%, 0%)"
     fill-opacity="1"
     stroke-width="11.526857"
     stroke-linecap="butt"
     stroke-linejoin="miter"
     stroke="rgb(0%, 0%, 0%)"
     stroke-opacity="0.1294"
     stroke-miterlimit="4"
     d="M 52.156099 289.002459 C 56.658777 317.140378 74.669492 349.518257 105.813018 386.136097 C 137.331768 422.753937 175.979759 441.255582 222.132215 442.026484 C 245.396054 442.026484 266.783777 435.859269 285.920161 423.91029 C 305.431768 411.961311 319.69025 396.928724 329.070831 378.812529 C 356.837349 420.826682 390.607438 442.026484 430.005875 442.026484 C 454.770607 442.026484 476.158331 434.702916 494.169045 420.05578 C 512.179759 405.408644 521.185116 385.750646 521.935563 361.081786 C 521.935563 341.809239 517.432884 326.00575 508.052304 314.056771 C 498.671723 302.107791 489.666366 294.784223 481.036232 292.086067 C 472.406098 289.38791 464.526411 287.846106 458.147616 287.846106 C 445.390027 287.846106 434.883777 291.700616 427.00409 299.024184 C 419.124402 306.347752 414.996947 315.984025 414.996947 327.933005 C 414.996947 358.76908 431.506768 379.583431 464.901634 391.146959 C 457.772393 399.62688 444.264357 403.866841 425.127974 403.866841 C 416.49784 403.866841 410.119045 403.48139 405.99159 401.939586 C 380.851634 391.146959 362.090474 369.176256 350.083331 336.027474 C 309.934447 188.785213 290.047616 102.829653 290.047616 78.160792 C 290.047616 59.273696 295.300741 46.168364 306.182215 38.073894 C 316.688465 29.979424 328.320384 26.124915 341.077974 26.124915 C 365.842706 26.124915 389.856991 36.917541 413.871277 58.888245 C 437.885563 80.858949 454.395384 107.840515 463.025518 139.832943 C 464.901634 146.77106 467.152973 150.240119 469.02909 151.011021 C 470.905206 151.781923 476.158331 152.167374 485.163688 152.938276 L 488.91592 152.938276 C 499.046947 152.938276 503.924848 150.240119 503.924848 144.843806 C 503.924848 144.458355 503.174402 140.603845 502.048732 134.051179 C 491.167259 95.891536 470.529982 62.357304 440.136902 33.063032 C 409.368599 3.76876 373.722393 -10.878376 332.823063 -10.878376 C 286.295384 -10.878376 251.024402 9.935975 227.010117 51.950128 C 199.618822 10.706877 168.475295 -10.107474 132.82909 -10.107474 L 126.825518 -10.107474 C 94.181099 -10.107474 70.917259 -1.242102 57.034001 16.10319 C 43.150742 33.448483 35.646277 51.564677 34.895831 70.837224 C 34.895831 92.422477 41.274626 109.76777 54.032215 122.873102 C 66.789804 136.363885 81.798733 142.916551 99.059001 142.916551 C 127.575965 142.916551 141.834447 129.040317 141.834447 100.902398 C 141.834447 87.797066 138.082215 75.848087 129.827304 65.826362 C 121.947617 56.190088 114.443152 49.251971 106.938688 46.168364 C 99.809447 42.699305 95.306768 41.157502 94.181099 41.157502 L 91.179313 40.001149 C 91.179313 39.230247 93.055429 38.073894 97.182884 36.146639 C 100.935117 33.833934 106.188242 31.521228 112.942259 28.823071 C 119.696277 26.510366 126.075072 25.354013 132.078643 26.124915 C 156.092929 26.124915 176.730206 41.157502 193.990474 70.837224 C 199.994045 81.629851 207.498509 104.371457 216.87909 139.062042 C 226.25967 173.752627 235.64025 209.599564 245.020831 246.988306 C 254.401411 284.377048 259.654536 306.347752 261.155429 312.900418 C 264.157215 331.016612 266.033331 344.121944 266.033331 351.830963 C 266.033331 370.718059 261.155429 383.823392 251.024402 391.917861 C 240.893375 400.012331 229.636679 403.866841 216.87909 403.866841 C 190.238242 403.866841 165.473509 393.459665 141.834447 371.874412 C 118.570608 350.67461 102.436009 323.307593 93.055429 290.158812 C 91.554536 283.991597 90.053643 280.522538 88.177527 280.137087 C 85.926188 279.366185 80.673063 278.595284 72.042929 277.824382 L 58.15967 277.824382 C 54.032215 282.064342 52.156099 285.533401 52.156099 289.002459 Z M 52.156099 289.002459 "
     transform="matrix(0.0104105, 0, 0, -0.0101342, 17.999999, 63.7296)"
     id="path21" />
  <path
     fill-rule="nonzero"
     fill="rgb(0%, 0%, 0%)"
     fill-opacity="1"
     stroke-width="16.303899"
     stroke-linecap="butt"
     stroke-linejoin="miter"
     stroke="rgb(0%, 0%, 0%)"
     stroke-opacity="0.0902"
     stroke-miterlimit="4"
     d="M 213.153496 577.865552 L 199.885349 572.958822 C 190.863009 569.687669 177.594862 566.416515 160.080908 563.145362 C 142.566954 559.874208 123.460822 557.148247 102.231787 556.057862 L 83.125655 556.057862 L 83.125655 601.854011 L 102.231787 601.854011 C 133.544614 603.489588 162.203812 608.396318 188.740106 617.119394 C 215.807126 625.84247 234.382532 633.475162 244.997049 641.107853 C 255.611567 648.195352 265.164633 655.828044 273.125521 662.915543 C 274.186973 665.096312 278.43278 666.186697 284.80149 666.186697 C 291.170201 666.186697 296.47746 664.005928 301.784719 660.189582 L 301.784719 360.879038 L 302.84617 61.023301 C 307.622703 56.116571 311.86851 53.39061 315.052866 51.755033 C 318.237221 50.664648 326.198109 49.574264 338.93553 47.938687 C 351.672951 46.848303 372.371261 45.757918 401.030458 45.757918 L 427.036027 45.757918 L 427.036027 -0.0382306 L 415.890783 -0.0382306 C 402.09191 2.142538 349.019322 3.232923 257.203745 3.232923 C 166.449619 3.232923 113.907756 2.142538 100.108884 -0.0382306 L 87.902188 -0.0382306 L 87.902188 45.757918 L 113.907756 45.757918 C 128.768081 45.757918 141.505502 45.757918 152.12002 45.757918 C 162.734538 45.757918 171.226152 46.30311 177.064136 46.848303 C 182.902121 47.938687 188.20938 48.483879 192.985913 50.119456 C 197.762446 51.209841 200.416075 51.755033 200.946801 51.755033 C 201.477527 51.755033 203.60043 53.935802 206.784786 57.206955 C 210.499867 60.478109 212.092045 61.568493 213.153496 61.023301 Z M 213.153496 577.865552 "
     transform="matrix(0.0073602, 0, 0, -0.0071649, 24.298335, 65.249726)"
     id="path23" />
  <path
     fill="none"
     stroke-width="1"
     stroke-linecap="round"
     stroke-linejoin="round"
     stroke="rgb(0%, 0%, 0%)"
     stroke-opacity="1"
     stroke-miterlimit="10"
     d="M 51.000002 161.000007 C 87.390629 174.598966 123.968755 183.640633 164.95834 198.989592 M 51.000002 161.000007 C 78.739587 169.031257 106.619796 179.947924 164.95834 198.989592 "
     transform="matrix(0.75, 0, 0, 0.75, 0.375, 0.375)"
     id="path25" />
  <path
     fill="none"
     stroke-width="0.5"
     stroke-linecap="round"
     stroke-linejoin="round"
     stroke="rgb(0%, 0%, 0%)"
     stroke-opacity="1"
     stroke-miterlimit="10"
     d="M 164.671882 194.817716 L 164.671882 194.817716 M 164.671882 194.817716 L 164.671882 194.817716 M 163.088548 202.718758 C 164.260424 201.4323 165.671882 199.270842 167.031257 198.197925 M 163.088548 202.718758 C 164.838549 201.08855 165.98959 199.15105 167.031257 198.197925 "
     transform="matrix(0.75, 0, 0, 0.75, 0.375, 0.375)"
     id="path27" />
  <path
     fill="none"
     stroke-width="1"
     stroke-linecap="round"
     stroke-linejoin="round"
     stroke="rgb(0%, 0%, 0%)"
     stroke-opacity="1"
     stroke-miterlimit="10"
     d="M 169.937507 200.65105 C 167.880215 200.739592 166.531257 201.671883 162.187507 201.750008 M 169.937507 200.65105 C 167.848965 201.15105 165.838549 201.161467 162.187507 201.750008 M 162.187507 201.750008 C 163.062507 200.968758 163.562507 200.479175 164.95834 198.989592 M 162.187507 201.750008 C 163.109382 200.911467 163.869799 200.171883 164.95834 198.989592 M 164.95834 198.989592 C 165.062507 197.33855 164.510424 196.317717 164.411465 195.109383 M 164.95834 198.989592 C 164.77084 198.218758 164.77084 197.40105 164.411465 195.109383 M 164.411465 195.109383 C 165.968757 196.58855 167.45834 198.739592 169.937507 200.65105 M 164.411465 195.109383 C 165.401049 195.947925 166.880215 197.260425 169.937507 200.65105 "
     transform="matrix(0.75, 0, 0, 0.75, 0.375, 0.375)"
     id="path29" />
  <path
     fill="none"
     stroke-width="1"
     stroke-linecap="round"
     stroke-linejoin="round"
     stroke="rgb(0%, 0%, 0%)"
     stroke-opacity="1"
     stroke-miterlimit="10"
     d="M 51.000002 161.000007 C 85.661462 150.541673 121.067713 139.838548 164.95834 123.010422 M 51.000002 161.000007 C 86.171879 147.197923 123.82813 135.979172 164.95834 123.010422 "
     transform="matrix(0.75, 0, 0, 0.75, 0.375, 0.375)"
     id="path31" />
  <path
     fill="none"
     stroke-width="0.5"
     stroke-linecap="round"
     stroke-linejoin="round"
     stroke="rgb(0%, 0%, 0%)"
     stroke-opacity="1"
     stroke-miterlimit="10"
     d="M 162.421882 119.989588 L 162.421882 119.989588 M 162.421882 119.989588 L 162.421882 119.989588 M 164.781257 123.369797 C 165.000007 122.791672 165.812507 122.489588 166.750007 121.098963 M 164.781257 123.369797 C 165.48959 122.562505 166.151049 121.911463 166.750007 121.098963 "
     transform="matrix(0.75, 0, 0, 0.75, 0.375, 0.375)"
     id="path33" />
  <path
     fill="none"
     stroke-width="1"
     stroke-linecap="round"
     stroke-linejoin="round"
     stroke="rgb(0%, 0%, 0%)"
     stroke-opacity="1"
     stroke-miterlimit="10"
     d="M 169.937507 121.348963 C 168.380215 122.802088 167.000007 123.64063 164.411465 126.89063 M 169.937507 121.348963 C 167.979174 123.218755 166.750007 125.010422 164.411465 126.89063 M 164.411465 126.89063 C 164.380215 126.020839 164.348965 125.020839 164.95834 123.010422 M 164.411465 126.89063 C 164.338549 125.89063 164.828132 124.968755 164.95834 123.010422 M 164.95834 123.010422 C 164.229174 122.458338 163.437507 121.718755 162.187507 120.250005 M 164.95834 123.010422 C 164.171882 122.182297 163.02084 121.119797 162.187507 120.250005 M 162.187507 120.250005 C 164.260424 120.958338 166.02084 120.968755 169.937507 121.348963 M 162.187507 120.250005 C 165.390632 120.302088 168.218757 120.989588 169.937507 121.348963 "
     transform="matrix(0.75, 0, 0, 0.75, 0.375, 0.375)"
     id="path35" />
  <path
     fill="none"
     stroke-width="2"
     stroke-linecap="round"
     stroke-linejoin="round"
     stroke="rgb(59.21936%, 81.568909%, 46.669006%)"
     stroke-opacity="1"
     stroke-miterlimit="10"
     d="M 22.838543 141.671881 C 26.432293 139.781256 32.531251 139.218756 36.687502 140.671881 C 40.859377 142.109381 45.437502 146.708339 47.81771 150.359381 C 50.208335 154.000006 51.562502 158.161465 50.989585 162.55209 C 50.421877 166.937507 47.447919 173.432299 44.38021 176.687507 C 41.312502 179.958341 36.562502 182.062508 32.56771 182.140633 C 28.56771 182.218758 23.739584 179.937507 20.401043 177.187507 C 17.067709 174.437507 13.651042 169.80209 12.578126 165.640632 C 11.5 161.468757 11.760417 156.130215 13.968751 152.182298 C 16.182292 148.218756 22.958334 143.697923 25.859376 141.901048 C 28.760418 140.098964 31.041668 141.260423 31.359376 141.380214 M 23.062501 142.718756 C 26.739584 140.578131 31.88021 140.901048 35.947918 141.687506 C 40.020835 142.479173 44.869794 144.000006 47.479169 147.447923 C 50.09896 150.911465 51.718752 157.979173 51.619794 162.421882 C 51.520835 166.859382 49.697919 170.77084 46.890627 174.078132 C 44.078127 177.390632 39.16146 181.317716 34.760418 182.302091 C 30.359376 183.281258 24.458334 182.552091 20.479168 179.968757 C 16.500001 177.390632 12.062501 171.218757 10.890625 166.828132 C 9.71875 162.447923 11.447917 157.77084 13.447917 153.661465 C 15.447917 149.562506 21.447918 143.760423 22.859376 142.187506 C 24.281251 140.630214 21.947918 144.078131 21.921876 144.260423 "
     transform="matrix(0.75, 0, 0, 0.75, 0, 0)"
     id="path37" />
  <path
     fill-rule="nonzero"
     fill="rgb(0%, 0%, 0%)"
     fill-opacity="1"
     stroke-width="11.526857"
     stroke-linecap="butt"
     stroke-linejoin="miter"
     stroke="rgb(0%, 0%, 0%)"
     stroke-opacity="0.1294"
     stroke-miterlimit="4"
     d="M 52.156099 289.001502 C 56.658777 317.139421 74.669492 349.5173 105.813018 386.13514 C 137.331768 422.75298 175.979759 441.254625 222.132215 442.025527 C 245.396054 442.025527 266.783777 435.858312 285.920161 423.909333 C 305.431768 411.960353 319.69025 396.927767 329.070831 378.811572 C 356.837349 420.825725 390.607438 442.025527 430.005875 442.025527 C 454.770607 442.025527 476.158331 434.701959 494.169045 420.054823 C 512.179759 405.407687 521.185116 385.749689 521.935563 361.080829 C 521.935563 341.808281 517.432884 326.004793 508.052304 314.055813 C 498.671723 302.106834 489.666366 294.783266 481.036232 292.08511 C 472.406098 289.386953 464.526411 287.845149 458.147616 287.845149 C 445.390027 287.845149 434.883777 291.699659 427.00409 299.023227 C 419.124402 306.346794 414.996947 315.983068 414.996947 327.932047 C 414.996947 358.768123 431.506768 379.582474 464.901634 391.146002 C 457.772393 399.625923 444.264357 403.865884 425.127974 403.865884 C 416.49784 403.865884 410.119045 403.480433 405.99159 401.938629 C 380.851634 391.146002 362.090474 369.175298 350.083331 336.026517 C 309.934447 188.784256 290.047616 102.828696 290.047616 78.159835 C 290.047616 59.272739 295.300741 46.167407 306.182215 38.072937 C 316.688465 29.978467 328.320384 26.123958 341.077974 26.123958 C 365.842706 26.123958 389.856991 36.916584 413.871277 58.887288 C 437.885563 80.857992 454.395384 107.839558 463.025518 139.831986 C 464.901634 146.770103 467.152973 150.239162 469.02909 151.010064 C 470.905206 151.780966 476.158331 152.166417 485.163688 152.937318 L 488.91592 152.937318 C 499.046947 152.937318 503.924848 150.239162 503.924848 144.842849 C 503.924848 144.457398 503.174402 140.602888 502.048732 134.050222 C 491.167259 95.890579 470.529982 62.356346 440.136902 33.062075 C 409.368599 3.767803 373.722393 -10.879333 332.823063 -10.879333 C 286.295384 -10.879333 251.024402 9.935018 227.010117 51.949171 C 199.618822 10.70592 168.475295 -10.108431 132.82909 -10.108431 L 126.825518 -10.108431 C 94.181099 -10.108431 70.917259 -1.243059 57.034001 16.102233 C 43.150742 33.447526 35.646277 51.56372 34.895831 70.836267 C 34.895831 92.42152 41.274626 109.766813 54.032215 122.872145 C 66.789804 136.362928 81.798733 142.915594 99.059001 142.915594 C 127.575965 142.915594 141.834447 129.03936 141.834447 100.901441 C 141.834447 87.796109 138.082215 75.847129 129.827304 65.825405 C 121.947617 56.189131 114.443152 49.251014 106.938688 46.167407 C 99.809447 42.698348 95.306768 41.156544 94.181099 41.156544 L 91.179313 40.000192 C 91.179313 39.22929 93.055429 38.072937 97.182884 36.145682 C 100.935117 33.832976 106.188242 31.520271 112.942259 28.822114 C 119.696277 26.509409 126.075072 25.353056 132.078643 26.123958 C 156.092929 26.123958 176.730206 41.156544 193.990474 70.836267 C 199.994045 81.628894 207.498509 104.370499 216.87909 139.061084 C 226.25967 173.751669 235.64025 209.598607 245.020831 246.987349 C 254.401411 284.376091 259.654536 306.346794 261.155429 312.899461 C 264.157215 331.015655 266.033331 344.120987 266.033331 351.830006 C 266.033331 370.717102 261.155429 383.822434 251.024402 391.916904 C 240.893375 400.011374 229.636679 403.865884 216.87909 403.865884 C 190.238242 403.865884 165.473509 393.458708 141.834447 371.873455 C 118.570608 350.673653 102.436009 323.306636 93.055429 290.157855 C 91.554536 283.99064 90.053643 280.521581 88.177527 280.13613 C 85.926188 279.365228 80.673063 278.594326 72.042929 277.823425 L 58.15967 277.823425 C 54.032215 282.063385 52.156099 285.532443 52.156099 289.001502 Z M 52.156099 289.001502 "
     transform="matrix(0.0104105, 0, 0, -0.0101342, 17.999999, 123.72959)"
     id="path39" />
  <path
     fill-rule="nonzero"
     fill="rgb(0%, 0%, 0%)"
     fill-opacity="1"
     stroke-width="16.303899"
     stroke-linecap="butt"
     stroke-linejoin="miter"
     stroke="rgb(0%, 0%, 0%)"
     stroke-opacity="0.0902"
     stroke-miterlimit="4"
     d="M 109.131224 429.028725 C 91.086544 429.028725 76.756945 435.025839 66.142427 447.020069 C 55.52791 459.014298 50.220651 473.734489 50.220651 491.180641 C 50.220651 538.067174 67.734605 579.501785 102.762513 613.848897 C 138.321147 648.741201 182.371395 666.187353 234.913258 666.187353 C 295.416008 666.187353 346.365693 647.105624 387.231586 610.032551 C 427.566753 572.414286 448.265062 524.437368 448.795788 465.011413 C 448.795788 436.116224 442.427077 408.856611 429.15893 383.232576 C 415.890783 357.063348 399.438281 334.165273 380.862875 315.083545 C 362.287469 295.456624 335.751175 270.922973 301.253993 240.937399 C 276.840602 220.220094 243.404872 189.689328 200.946801 148.799909 L 142.036228 93.1903 L 217.930029 92.099915 C 322.483028 92.099915 378.209246 93.735492 385.108682 97.006646 C 389.885215 98.09703 397.846103 128.082604 408.991347 185.872982 L 408.991347 189.144135 L 448.795788 189.144135 L 448.795788 185.872982 C 448.265062 184.237405 444.019255 153.706639 436.058367 94.825877 C 428.097478 36.490306 422.79022 5.414348 421.198042 3.233579 L 421.198042 -0.0375746 L 50.220651 -0.0375746 L 50.220651 31.038383 C 50.220651 35.399921 51.812828 40.851844 56.058635 45.758574 C 59.773717 51.210497 69.857508 63.204726 85.779285 81.19607 C 105.416142 102.458568 121.868645 120.995104 136.198244 136.80568 C 142.036228 143.893179 153.181472 155.887408 170.1647 173.878752 C 186.617202 191.870097 197.762446 204.409518 204.131156 210.951825 C 209.969141 217.494132 219.522207 228.397977 232.790354 244.208552 C 246.589227 259.473935 255.611567 270.922973 260.918826 278.010472 C 266.226085 285.097971 274.186973 295.456624 283.740039 307.996046 C 293.82383 320.535467 301.253993 331.439312 304.969074 340.162388 C 309.214881 348.885464 313.991414 358.153732 319.829399 369.057577 C 326.198109 379.41623 330.443916 390.320075 333.097546 401.22392 C 335.751175 411.582573 337.874079 421.396033 339.996982 431.209494 C 342.119886 440.477762 343.181337 451.381607 343.181337 463.921028 C 343.181337 505.900832 331.505368 542.428712 309.214881 572.959478 C 286.393668 603.490244 254.019389 618.755627 212.092045 618.755627 C 189.801558 618.755627 170.695426 613.303704 154.242923 601.854667 C 137.259695 590.40563 125.583726 579.501785 119.215015 569.143132 C 112.315579 558.239287 109.131224 552.242173 109.131224 550.061404 C 109.131224 549.516211 110.723401 548.971019 113.907756 548.971019 C 126.114452 548.971019 138.321147 544.064289 151.058568 534.796021 C 163.795989 525.527753 170.1647 510.26237 170.1647 488.999872 C 170.1647 472.098912 164.857441 458.469106 154.242923 447.020069 C 143.09768 435.571032 128.237355 429.573917 109.131224 429.028725 Z M 109.131224 429.028725 "
     transform="matrix(0.0073602, 0, 0, -0.0071649, 24.298335, 125.249731)"
     id="path41" />
  <path
     fill="none"
     stroke-width="1"
     stroke-linecap="round"
     stroke-linejoin="round"
     stroke="rgb(0%, 0%, 0%)"
     stroke-opacity="1"
     stroke-miterlimit="10"
     d="M 51.000002 241.00001 C 81.94792 230.93751 112.07813 222.062509 164.95834 203.010425 M 51.000002 241.00001 C 94.661462 225.791676 139.098964 211.567717 164.95834 203.010425 "
     transform="matrix(0.75, 0, 0, 0.75, 0.375, 0.375)"
     id="path43" />
  <path
     fill="none"
     stroke-width="0.5"
     stroke-linecap="round"
     stroke-linejoin="round"
     stroke="rgb(0%, 0%, 0%)"
     stroke-opacity="1"
     stroke-miterlimit="10"
     d="M 162.010423 200.458342 L 162.010423 200.458342 M 162.010423 200.458342 L 162.010423 200.458342 M 165.031257 203.078133 C 165.848965 202.489592 166.041674 201.9323 167.000007 200.817717 M 165.031257 203.078133 C 165.911465 202.1198 166.541674 201.250008 167.000007 200.817717 "
     transform="matrix(0.75, 0, 0, 0.75, 0.375, 0.375)"
     id="path45" />
  <path
     fill="none"
     stroke-width="1"
     stroke-linecap="round"
     stroke-linejoin="round"
     stroke="rgb(0%, 0%, 0%)"
     stroke-opacity="1"
     stroke-miterlimit="10"
     d="M 169.937507 201.348967 C 169.062507 202.578133 166.062507 204.65105 164.411465 206.890634 M 169.937507 201.348967 C 167.619799 203.598967 165.968757 205.40105 164.411465 206.890634 M 164.411465 206.890634 C 164.432299 205.40105 164.70834 203.802092 164.95834 203.010425 M 164.411465 206.890634 C 164.401049 205.848967 164.661465 204.6198 164.95834 203.010425 M 164.95834 203.010425 C 164.197924 202.281258 163.95834 201.83855 162.187507 200.250008 M 164.95834 203.010425 C 163.911465 201.791675 162.968757 200.83855 162.187507 200.250008 M 162.187507 200.250008 C 165.000007 200.989592 166.390632 201.041675 169.937507 201.348967 M 162.187507 200.250008 C 165.130215 200.328133 167.687507 201.260425 169.937507 201.348967 "
     transform="matrix(0.75, 0, 0, 0.75, 0.375, 0.375)"
     id="path47" />
  <path
     fill="none"
     stroke-width="1"
     stroke-linecap="round"
     stroke-linejoin="round"
     stroke="rgb(0%, 0%, 0%)"
     stroke-opacity="1"
     stroke-miterlimit="10"
     d="M 51.000002 241.00001 C 88.161462 202.380217 122.411463 166.859382 166.500007 125.500005 M 51.000002 241.00001 C 95.020837 199.098967 136.489589 154.401048 166.500007 125.500005 "
     transform="matrix(0.75, 0, 0, 0.75, 0.375, 0.375)"
     id="path49" />
  <path
     fill="none"
     stroke-width="0.5"
     stroke-linecap="round"
     stroke-linejoin="round"
     stroke="rgb(0%, 0%, 0%)"
     stroke-opacity="1"
     stroke-miterlimit="10"
     d="M 162.781257 124.270839 L 162.781257 124.270839 M 162.781257 124.270839 L 162.781257 124.270839 M 167.109382 125.39063 C 168.109382 123.880214 169.45834 122.552088 170.390632 121.619797 M 167.109382 125.39063 C 168.338549 124.010422 169.661465 122.348963 170.390632 121.619797 "
     transform="matrix(0.75, 0, 0, 0.75, 0.375, 0.375)"
     id="path51" />
  <path
     fill="none"
     stroke-width="1"
     stroke-linecap="round"
     stroke-linejoin="round"
     stroke="rgb(0%, 0%, 0%)"
     stroke-opacity="1"
     stroke-miterlimit="10"
     d="M 170.20834 121.791672 C 169.578132 123.380213 168.671882 125.57813 167.729174 129.218755 M 170.20834 121.791672 C 169.968757 123.598964 169.098965 125.458339 167.729174 129.218755 M 167.729174 129.218755 C 166.921882 127.937505 166.947924 126.60938 166.500007 125.500005 M 167.729174 129.218755 C 167.229174 127.932297 166.697924 126.760422 166.500007 125.500005 M 166.500007 125.500005 C 165.500007 125.291672 164.791674 124.92188 162.781257 124.270839 M 166.500007 125.500005 C 165.437507 125.270839 163.947924 124.739589 162.781257 124.270839 M 162.781257 124.270839 C 165.359382 124.020839 166.421882 122.682297 170.20834 121.791672 M 162.781257 124.270839 C 164.729174 123.338547 166.48959 122.718755 170.20834 121.791672 "
     transform="matrix(0.75, 0, 0, 0.75, 0.375, 0.375)"
     id="path53" />
  <g
     clip-path="url(#clip-0)"
     id="g57">
    <path
       fill="none"
       stroke-width="2"
       stroke-linecap="round"
       stroke-linejoin="round"
       stroke="#97d077"
       stroke-opacity="1"
       stroke-miterlimit="10"
       d="m 37.802085,220.93751 c 3.869792,1.08333 8.598959,6.07292 10.828125,9.86458 2.229167,3.78646 3.328125,8.63542 2.541667,12.88021 -0.791667,4.25 -4.171875,9.51563 -7.291667,12.57813 -3.109375,3.06771 -7.197917,5.67708 -11.380209,5.79166 -4.1875,0.10938 -10.302083,-2.30208 -13.729167,-5.11979 -3.421875,-2.83333 -6.052083,-7.49479 -6.822917,-11.82292 -0.765625,-4.32812 0.354167,-10.16145 2.192709,-14.15104 1.838541,-4 4.880208,-8.16666 8.838542,-9.80729 3.96875,-1.64062 11.958333,-0.42187 14.942709,-0.0521 2.96875,0.35937 2.760416,1.8125 2.890625,2.25 m -2.630209,-1.36979 c 3.796875,1.16145 7.796876,6.16145 9.817709,9.84895 2.020833,3.69271 2.791667,8.20313 2.28125,12.27084 -0.510417,4.08333 -2.161458,9.02083 -5.34375,12.20312 -3.177084,3.17709 -9.468751,6.81771 -13.718751,6.88021 -4.25,0.0573 -8.489583,-3.52083 -11.786459,-6.5 -3.302083,-2.99479 -7.114583,-6.82292 -8.03125,-11.40104 -0.921875,-4.58333 0.489583,-12.20313 2.5,-16.09375 2.010417,-3.875 5.6875,-5.79688 9.536459,-7.21875 3.84375,-1.40625 10.932292,-1.35938 13.520834,-1.26042 2.583333,0.10417 1.739583,1.35417 1.979167,1.85938"
       transform="scale(0.75)"
       id="path55" />
  </g>
  <path
     fill-rule="nonzero"
     fill="rgb(0%, 0%, 0%)"
     fill-opacity="1"
     stroke-width="10.801845"
     stroke-linecap="butt"
     stroke-linejoin="miter"
     stroke="rgb(0%, 0%, 0%)"
     stroke-opacity="0.1333"
     stroke-miterlimit="4"
     d="M 52.156099 289.044844 C 56.658777 317.174649 74.669492 349.172302 105.813018 386.092671 C 137.331768 422.661418 175.979759 441.297414 222.132215 442.000659 C 245.396054 442.000659 266.783777 436.023075 285.920161 424.067908 C 305.431768 412.112741 319.69025 396.992971 329.070831 379.06022 C 356.837349 420.903305 390.607438 442.000659 430.005875 442.000659 C 454.770607 442.000659 476.158331 434.616585 494.169045 419.848437 C 512.179759 405.431912 521.185116 385.741049 521.935563 361.127469 C 521.935563 341.788228 517.432884 325.965213 508.052304 314.010046 C 498.671723 302.054879 489.666366 294.670805 481.036232 291.857824 C 472.406098 289.396466 464.526411 287.989976 458.147616 287.989976 C 445.390027 287.989976 434.883777 291.506202 427.00409 298.890276 C 419.124402 306.274349 414.996947 316.119781 414.996947 328.074948 C 414.996947 358.666111 431.506768 379.763465 464.901634 391.015387 C 457.772393 399.805951 444.264357 404.025422 425.127974 404.025422 C 416.49784 404.025422 410.119045 403.322177 405.99159 401.915687 C 380.851634 391.36701 362.090474 369.214788 350.083331 336.162267 C 309.934447 188.832413 290.047616 102.684885 290.047616 78.071306 C 290.047616 59.43531 295.300741 46.073653 306.182215 37.986334 C 316.688465 29.899015 328.320384 26.031166 341.077974 26.031166 C 365.842706 26.031166 389.856991 36.931466 413.871277 59.083687 C 437.885563 80.884286 454.395384 107.959224 463.025518 139.956877 C 464.901634 146.637706 467.152973 150.505554 469.02909 150.857176 C 470.905206 151.560422 476.158331 152.263667 485.163688 152.966912 L 488.91592 152.966912 C 499.046947 152.966912 503.924848 150.505554 503.924848 144.879593 C 503.924848 144.176348 503.174402 140.660122 502.048732 133.979293 C 491.167259 96.004057 470.529982 62.248291 440.136902 33.063618 C 409.368599 3.527322 373.722393 -10.889203 332.823063 -10.889203 C 286.295384 -10.889203 251.024402 9.856529 227.010117 52.051236 C 199.618822 10.559774 168.475295 -9.834335 132.82909 -9.834335 L 126.825518 -9.834335 C 94.181099 -9.834335 70.917259 -1.395393 57.034001 15.834112 C 43.150742 33.41524 35.646277 51.699614 34.895831 71.038855 C 34.895831 92.487831 41.274626 109.717337 54.032215 123.078994 C 66.789804 136.440651 81.798733 143.12148 99.059001 143.12148 C 127.575965 143.12148 141.834447 129.056578 141.834447 100.926772 C 141.834447 87.565115 138.082215 75.96157 129.827304 66.116139 C 121.947617 55.919084 114.443152 49.238256 106.938688 46.073653 C 99.809447 42.557427 95.306768 41.150937 94.181099 41.150937 L 91.179313 40.096069 C 91.179313 39.392824 93.055429 37.986334 97.182884 35.876598 C 100.935117 34.118485 106.188242 31.657127 112.942259 28.844147 C 119.696277 26.382789 126.075072 25.327921 132.078643 26.031166 C 156.092929 26.031166 176.730206 41.150937 193.990474 71.038855 C 199.994045 81.587531 207.498509 104.442998 216.87909 138.902009 C 226.25967 173.712643 235.64025 209.578145 245.020831 246.850136 C 254.401411 284.473751 259.654536 306.274349 261.155429 312.955178 C 264.157215 330.887929 266.033331 343.897964 266.033331 351.985283 C 266.033331 370.621279 261.155429 383.982936 251.024402 392.070255 C 240.893375 400.157574 229.636679 404.025422 216.87909 404.025422 C 190.238242 404.025422 165.473509 393.476745 141.834447 372.027769 C 118.570608 350.578792 102.436009 323.503855 93.055429 290.099712 C 91.554536 284.122128 90.053643 280.605902 88.177527 279.902657 C 85.926188 279.199412 80.673063 278.496167 72.042929 278.144544 L 58.15967 278.144544 C 54.032215 282.012393 52.156099 285.528618 52.156099 289.044844 Z M 52.156099 289.044844 "
     transform="matrix(0.0104105, 0, 0, -0.0111092, 17.999999, 184.16028)"
     id="path59" />
  <path
     fill-rule="nonzero"
     fill="rgb(0%, 0%, 0%)"
     fill-opacity="1"
     stroke-width="15.278423"
     stroke-linecap="butt"
     stroke-linejoin="miter"
     stroke="rgb(0%, 0%, 0%)"
     stroke-opacity="0.0941"
     stroke-miterlimit="4"
     d="M 127.175904 462.842649 C 109.131224 462.842649 94.801625 468.810782 85.248559 479.752361 C 75.164767 491.191284 69.857508 506.111619 68.796057 524.01602 C 68.796057 560.819512 85.248559 593.146903 117.092112 621.992883 C 148.935665 650.838863 187.678654 664.764509 232.790354 664.764509 C 256.142293 664.764509 271.002617 664.764509 276.840602 663.76982 C 326.198109 655.812308 363.879647 638.405251 389.885215 611.051305 C 415.890783 583.697358 429.15893 553.856689 430.220382 522.026642 C 430.220382 487.212528 418.544413 453.890448 396.253926 421.065712 C 373.432713 388.240976 342.119886 364.865785 301.784719 349.945451 L 299.131089 347.956073 C 299.131089 347.458728 301.784719 346.46404 308.153429 344.972006 C 313.991414 343.479973 323.54448 340.495906 336.812627 336.019805 C 350.080774 331.543705 362.818195 324.580882 375.02489 315.131337 C 429.689656 279.819879 456.756676 233.069497 456.756676 174.880193 C 456.756676 122.161678 436.589093 76.405985 395.192474 37.115771 C 353.795855 -2.174443 301.253993 -22.068223 238.097613 -22.068223 C 184.494299 -22.068223 138.851873 -7.645233 100.108884 21.200747 C 61.365894 49.549383 42.259762 85.85553 42.259762 130.119189 C 42.259762 148.520935 48.097747 163.44127 59.773717 174.880193 C 71.980412 186.319116 86.840737 192.28725 104.885417 192.784594 C 123.460822 192.784594 138.851873 186.81646 151.058568 174.880193 C 163.265263 162.943925 169.103248 148.023591 169.103248 130.119189 C 169.103248 122.659022 168.041796 116.193544 165.918893 110.22541 C 163.795989 103.759932 161.673086 98.786487 159.019456 93.813042 C 156.365827 89.336942 152.650746 85.358186 147.874213 81.876774 C 143.09768 78.892708 139.382599 75.908641 136.198244 73.919263 C 132.483162 71.929885 129.298807 70.437851 126.114452 69.940507 C 122.930096 69.443162 119.745741 68.448473 118.153564 66.95644 L 113.907756 65.961751 C 147.874213 36.121082 189.270832 21.200747 238.097613 21.200747 C 274.717699 21.200747 302.315444 38.607804 320.89085 73.919263 C 332.56682 95.80242 337.874079 129.621845 337.874079 174.880193 L 337.874079 194.773972 C 337.874079 258.434066 316.645043 300.708347 274.186973 322.09416 C 264.103181 326.072916 243.404872 328.559638 213.153496 329.056983 L 171.226152 330.051672 L 168.041796 332.04105 C 166.449619 334.030427 165.918893 339.501217 165.918893 347.956073 C 165.918893 359.892341 168.572522 365.860474 173.879781 365.860474 C 192.455187 365.860474 212.092045 367.849852 232.259628 370.833919 C 254.550115 374.315331 275.248425 388.240976 293.82383 413.1082 C 312.929962 437.47808 321.952302 474.778916 321.952302 525.010709 L 321.952302 532.968221 C 321.952302 570.766401 310.276333 597.125659 286.924394 612.045994 C 272.594795 621.495539 256.673019 625.971639 240.220516 625.971639 C 218.460755 625.971639 198.823898 622.490228 180.779218 615.030061 C 163.265263 607.569893 150.527842 600.109726 143.09768 592.152214 C 135.667518 584.194703 131.952436 580.215947 131.952436 580.215947 L 135.136792 580.215947 C 137.259695 579.221258 139.913325 578.723913 143.09768 578.226569 C 146.282035 577.23188 149.466391 575.739846 153.181472 572.755779 C 156.365827 570.269057 160.080908 567.782335 164.857441 565.792957 C 169.633974 563.803579 172.818329 560.322167 174.941233 554.851378 C 177.064136 549.877933 179.717766 544.904488 182.902121 539.931044 C 186.086476 535.454943 187.147928 528.49212 186.086476 520.037264 C 186.086476 505.11693 181.309943 492.185973 171.756878 481.244395 C 162.734538 469.805471 147.874213 463.837338 127.175904 462.842649 Z M 127.175904 462.842649 "
     transform="matrix(0.0073602, 0, 0, -0.00785421, 24.298335, 185.826671)"
     id="path61" />
  <path
     fill="none"
     stroke-width="1"
     stroke-linecap="round"
     stroke-linejoin="round"
     stroke="rgb(0%, 0%, 0%)"
     stroke-opacity="1"
     stroke-miterlimit="10"
     d="M 211.000009 121.000005 C 246.802094 133.432297 287.078137 143.479173 329.932305 159.062507 M 211.000009 121.000005 C 235.432301 129.750005 259.651053 137.250006 329.932305 159.062507 "
     transform="matrix(0.75, 0, 0, 0.75, 0.375, 0.375)"
     id="path63" />
  <path
     fill="none"
     stroke-width="0.5"
     stroke-linecap="round"
     stroke-linejoin="round"
     stroke="rgb(0%, 0%, 0%)"
     stroke-opacity="1"
     stroke-miterlimit="10"
     d="M 329.369805 155.140631 L 329.369805 155.140631 M 329.369805 155.140631 L 329.369805 155.140631 M 328.44793 162.291673 C 330.161472 160.718757 330.958347 159.078132 332.390639 157.77084 M 328.44793 162.291673 C 329.119805 161.437507 330.531264 160.338548 332.390639 157.77084 "
     transform="matrix(0.75, 0, 0, 0.75, 0.375, 0.375)"
     id="path65" />
  <path
     fill="none"
     stroke-width="1"
     stroke-linecap="round"
     stroke-linejoin="round"
     stroke="rgb(0%, 0%, 0%)"
     stroke-opacity="1"
     stroke-miterlimit="10"
     d="M 334.937514 160.661465 C 333.187514 161.500007 330.94793 160.697923 327.19793 161.859382 M 334.937514 160.661465 C 332.911472 160.609382 330.520847 161.598965 327.19793 161.859382 M 327.19793 161.859382 C 328.437514 160.729173 328.94793 160.151048 329.932305 159.062507 M 327.19793 161.859382 C 327.812514 161.02084 328.609389 160.23959 329.932305 159.062507 M 329.932305 159.062507 C 329.359389 157.687507 329.609389 156.911465 329.328139 155.187506 M 329.932305 159.062507 C 329.750014 157.661465 329.750014 156.578132 329.328139 155.187506 M 329.328139 155.187506 C 330.94793 157.869798 333.151056 159.02084 334.937514 160.661465 M 329.328139 155.187506 C 330.47918 156.130215 331.708347 157.432298 334.937514 160.661465 "
     transform="matrix(0.75, 0, 0, 0.75, 0.375, 0.375)"
     id="path67" />
  <path
     fill="none"
     stroke-width="2"
     stroke-linecap="round"
     stroke-linejoin="round"
     stroke="rgb(100%, 50.19989%, 0%)"
     stroke-opacity="1"
     stroke-miterlimit="10"
     d="M 187.182299 102.151046 C 190.968758 101.020838 196.989592 101.447921 200.552092 103.312504 C 204.098967 105.161463 206.859384 109.218755 208.489592 113.270838 C 210.1198 117.312505 211.640634 123.708338 210.33855 127.588547 C 209.041675 131.468755 204.489592 134.500006 200.697925 136.531256 C 196.921883 138.552089 191.598966 140.088548 187.630216 139.729172 C 183.671883 139.369797 179.630216 137.401047 176.911466 134.380214 C 174.182299 131.35938 171.421882 125.838547 171.260424 121.598963 C 171.098965 117.35938 172.531257 112.32813 175.937507 108.937505 C 179.348966 105.552088 188.598966 102.401046 191.718758 101.260421 C 194.848966 100.119796 194.708341 101.640629 194.6823 102.098963 M 193.270841 100.609379 C 197.609383 100.260421 202.187508 102.760421 205.1823 105.729171 C 208.161467 108.697921 210.911467 114.270838 211.161467 118.437505 C 211.421884 122.60938 209.328134 127.39063 206.687509 130.770839 C 204.062509 134.151047 199.458342 137.312506 195.348966 138.718756 C 191.229175 140.130214 185.682299 140.828131 182.000008 139.218756 C 178.317716 137.609381 175.031257 132.781256 173.260424 129.067714 C 171.500007 125.35938 170.619799 120.682297 171.390632 116.958338 C 172.171882 113.250005 174.302091 109.458338 177.901049 106.781254 C 181.500008 104.088546 190.552091 101.619796 193.000008 100.869796 C 195.447925 100.109379 192.697925 101.651046 192.598966 102.239588 "
     transform="matrix(0.75, 0, 0, 0.75, 0, 0)"
     id="path69" />
  <path
     fill-rule="nonzero"
     fill="rgb(0%, 0%, 0%)"
     fill-opacity="1"
     stroke-width="11"
     stroke-linecap="butt"
     stroke-linejoin="miter"
     stroke="rgb(0%, 0%, 0%)"
     stroke-opacity="0.1333"
     stroke-miterlimit="4"
     d="M 118.164599 -161.979617 C 119.238818 -161.979617 121.387255 -162.708783 123.893766 -164.167116 C 126.758349 -165.260866 130.339078 -166.354616 134.994026 -167.083783 C 139.648974 -167.81295 143.587776 -168.177533 147.168506 -168.177533 C 155.762256 -168.177533 163.63986 -163.802533 171.159391 -155.052534 C 178.32085 -146.302534 183.691943 -136.823368 186.9146 -125.885869 C 193.717985 -108.021287 205.176319 -56.979624 220.931527 26.874537 C 237.044808 111.093282 252.441944 190.937026 267.122934 267.134938 C 281.803923 342.968266 288.965382 381.249514 288.965382 381.97868 L 288.965382 384.895347 L 242.057829 384.895347 C 210.547412 384.895347 194.076058 385.624513 191.92762 387.082847 C 189.42111 388.905763 187.988818 392.187013 187.988818 396.926596 L 195.150277 424.999511 C 196.224496 428.28076 199.089079 430.103677 203.027881 430.103677 C 206.966683 430.103677 222.721892 430.46826 249.935433 430.832844 C 282.161996 430.832844 297.917205 431.197427 297.917205 431.926594 C 297.917205 433.384927 301.139861 450.155759 306.869028 481.874507 C 312.956267 513.957838 316.895069 533.280753 319.043507 539.843253 C 343.750538 649.947412 392.448455 704.999492 465.137258 704.999492 C 489.844289 703.541159 509.896373 696.249492 526.009654 683.124493 C 542.122936 669.634911 550.00054 652.134912 550.00054 629.89533 C 550.00054 605.832832 542.839082 588.697416 528.874238 578.1245 C 514.909394 567.187001 500.94455 561.718251 486.979706 560.989085 C 457.617727 560.989085 442.936737 574.843251 442.936737 602.916165 C 442.936737 615.676581 446.517466 626.61408 454.036997 636.093247 C 461.198456 645.207829 469.434133 652.499495 478.027883 656.874495 L 486.979706 661.978661 C 476.237518 665.989078 466.211477 668.176578 456.901581 668.176578 C 449.023977 668.176578 441.504445 664.530745 433.984914 657.968245 C 426.823456 651.405745 421.810435 641.926579 418.945851 629.89533 C 414.290903 610.572415 408.91981 584.687 402.83257 551.874502 C 397.103403 519.426588 391.73231 491.718256 387.077362 469.114091 C 382.422414 446.509926 379.915903 434.478677 379.915903 433.020343 C 379.915903 431.56201 398.177622 430.832844 435.059133 430.832844 C 465.137258 430.832844 482.324758 430.832844 486.979706 430.103677 C 491.634654 429.37451 495.215383 427.187011 498.079967 423.905761 C 498.796112 421.353678 498.079967 415.520345 495.931529 407.134929 C 494.141164 398.384929 492.3508 392.916179 490.918508 391.093263 C 489.844289 387.812013 486.621633 385.989097 481.966685 385.989097 C 477.311737 385.989097 459.408091 385.624513 427.897674 384.895347 L 372.038299 384.895347 L 349.121632 263.124522 C 316.895069 97.603699 294.694548 -5.573377 282.161996 -47.135874 C 263.900277 -103.646287 240.625538 -145.573368 211.979704 -172.917116 C 187.272673 -194.427531 162.923714 -205.000447 138.932828 -205.000447 C 117.806526 -205.000447 98.470589 -198.802531 80.925015 -186.042115 C 63.737515 -173.281699 55.143765 -155.417117 55.143765 -132.083785 C 55.143765 -107.29212 61.947151 -89.427538 75.911995 -78.125456 C 89.876838 -66.823373 103.841682 -60.99004 118.164599 -60.99004 C 147.168506 -60.99004 161.849495 -74.844206 161.849495 -102.917121 C 161.849495 -115.677536 158.268766 -126.615036 151.107308 -136.094202 C 143.587776 -145.208784 135.710172 -152.500451 127.116422 -156.87545 Z M 118.164599 -161.979617 "
     transform="matrix(0.0109091, 0, 0, -0.0107143, 140.249994, 93.803566)"
     id="path71" />
  <path
     fill="none"
     stroke-width="1"
     stroke-linecap="round"
     stroke-linejoin="round"
     stroke="rgb(0%, 0%, 0%)"
     stroke-opacity="1"
     stroke-miterlimit="10"
     d="M 211.000009 201.000008 C 248.369802 189.541675 285.81772 175.421882 329.932305 162.937507 M 211.000009 201.000008 C 251.078135 187.390633 290.937512 175.197924 329.932305 162.937507 "
     transform="matrix(0.75, 0, 0, 0.75, 0.375, 0.375)"
     id="path73" />
  <path
     fill="none"
     stroke-width="0.5"
     stroke-linecap="round"
     stroke-linejoin="round"
     stroke="rgb(0%, 0%, 0%)"
     stroke-opacity="1"
     stroke-miterlimit="10"
     d="M 327.328139 159.98959 L 327.328139 159.98959 M 327.328139 159.98959 L 327.328139 159.98959 M 329.687514 163.369798 C 330.562514 162.328132 331.062514 161.781257 331.661472 161.109382 M 329.687514 163.369798 C 330.187514 162.630215 330.812514 162.062507 331.661472 161.109382 "
     transform="matrix(0.75, 0, 0, 0.75, 0.375, 0.375)"
     id="path75" />
  <path
     fill="none"
     stroke-width="1"
     stroke-linecap="round"
     stroke-linejoin="round"
     stroke="rgb(0%, 0%, 0%)"
     stroke-opacity="1"
     stroke-miterlimit="10"
     d="M 334.937514 161.338548 C 333.718764 163.031257 331.04168 164.510424 329.328139 166.812507 M 334.937514 161.338548 C 333.281264 162.968757 332.088556 163.781257 329.328139 166.812507 M 329.328139 166.812507 C 329.239597 165.838549 329.54168 165.041674 329.932305 162.937507 M 329.328139 166.812507 C 329.718764 165.55209 329.578139 164.328132 329.932305 162.937507 M 329.932305 162.937507 C 329.369805 162.541673 328.97918 161.182298 327.19793 160.140632 M 329.932305 162.937507 C 329.161472 162.197923 328.739597 161.562507 327.19793 160.140632 M 327.19793 160.140632 C 329.932305 160.317715 331.817722 160.348965 334.937514 161.338548 M 327.19793 160.140632 C 329.432305 160.182298 331.031264 161.182298 334.937514 161.338548 "
     transform="matrix(0.75, 0, 0, 0.75, 0.375, 0.375)"
     id="path77" />
  <path
     fill="none"
     stroke-width="2"
     stroke-linecap="round"
     stroke-linejoin="round"
     stroke="rgb(100%, 50.19989%, 0%)"
     stroke-opacity="1"
     stroke-miterlimit="10"
     d="M 196.000008 182.520841 C 199.750008 183.458341 204.312509 186.119799 206.661467 189.6823 C 209.020842 193.239591 210.541675 199.791675 210.1198 203.880217 C 209.697925 207.968759 207.109384 211.437509 204.130217 214.208342 C 201.161467 216.968759 196.520842 220.052093 192.260425 220.458343 C 188.010425 220.869801 182.119799 219.208342 178.588549 216.671884 C 175.062507 214.130217 172.041674 209.171884 171.078132 205.208342 C 170.119799 201.250008 170.921882 196.520842 172.817716 192.911466 C 174.718757 189.302091 178.281257 185.312508 182.479174 183.562508 C 186.682299 181.812508 195.15105 182.291674 198.052092 182.432299 C 200.937508 182.562508 199.947925 183.890633 199.848967 184.359383 M 185.270841 182.109383 C 188.770841 180.828133 193.947925 180.937508 198.1198 182.781258 C 202.281258 184.619799 208.281259 189.33855 210.250009 193.15105 C 212.208342 196.958342 211.312509 201.58855 209.921884 205.65105 C 208.541675 209.718759 205.552092 214.838551 201.937508 217.520842 C 198.328133 220.197926 192.458341 222.067718 188.260425 221.739593 C 184.062508 221.421884 179.682299 218.979176 176.739591 215.567717 C 173.812507 212.171884 171.197924 205.3698 170.651049 201.317717 C 170.109382 197.260425 170.911465 194.6198 173.458341 191.218758 C 176.010424 187.817716 183.828133 182.468758 185.947924 180.901049 C 188.067716 179.328132 186.098966 181.098966 186.171883 181.791674 "
     transform="matrix(0.75, 0, 0, 0.75, 0, 0)"
     id="path79" />
  <path
     fill-rule="nonzero"
     fill="rgb(0%, 0%, 0%)"
     fill-opacity="1"
     stroke-width="11"
     stroke-linecap="butt"
     stroke-linejoin="miter"
     stroke="rgb(0%, 0%, 0%)"
     stroke-opacity="0.1333"
     stroke-miterlimit="4"
     d="M 118.164599 -161.97985 C 119.238818 -161.97985 121.387255 -162.709017 123.893766 -164.16735 C 126.758349 -165.2611 130.339078 -166.35485 134.994026 -167.084016 C 139.648974 -167.813183 143.587776 -168.177766 147.168506 -168.177766 C 155.762256 -168.177766 163.63986 -163.802766 171.159391 -155.052767 C 178.32085 -146.302768 183.691943 -136.823602 186.9146 -125.886102 C 193.717985 -108.02152 205.176319 -56.979857 220.931527 26.874304 C 237.044808 111.093048 252.441944 190.936793 267.122934 267.134705 C 281.803923 342.968033 288.965382 381.24928 288.965382 381.978447 L 288.965382 384.895113 L 242.057829 384.895113 C 210.547412 384.895113 194.076058 385.62428 191.92762 387.082613 C 189.42111 388.90553 187.988818 392.18678 187.988818 396.926363 L 195.150277 424.999277 C 196.224496 428.280527 199.089079 430.103444 203.027881 430.103444 C 206.966683 430.103444 222.721892 430.468027 249.935433 430.83261 C 282.161996 430.83261 297.917205 431.197194 297.917205 431.92636 C 297.917205 433.384693 301.139861 450.155526 306.869028 481.874274 C 312.956267 513.957605 316.895069 533.28052 319.043507 539.84302 C 343.750538 649.947179 392.448455 704.999259 465.137258 704.999259 C 489.844289 703.540925 509.896373 696.249259 526.009654 683.12426 C 542.122936 669.634678 550.00054 652.134679 550.00054 629.895097 C 550.00054 605.832599 542.839082 588.697183 528.874238 578.124267 C 514.909394 567.186768 500.94455 561.718018 486.979706 560.988852 C 457.617727 560.988852 442.936737 574.843017 442.936737 602.915932 C 442.936737 615.676348 446.517466 626.613847 454.036997 636.093013 C 461.198456 645.207596 469.434133 652.499262 478.027883 656.874262 L 486.979706 661.978428 C 476.237518 665.988844 466.211477 668.176344 456.901581 668.176344 C 449.023977 668.176344 441.504445 664.530511 433.984914 657.968012 C 426.823456 651.405512 421.810435 641.926346 418.945851 629.895097 C 414.290903 610.572182 408.91981 584.686767 402.83257 551.874269 C 397.103403 519.426354 391.73231 491.718023 387.077362 469.113858 C 382.422414 446.509693 379.915903 434.478443 379.915903 433.02011 C 379.915903 431.561777 398.177622 430.83261 435.059133 430.83261 C 465.137258 430.83261 482.324758 430.83261 486.979706 430.103444 C 491.634654 429.374277 495.215383 427.186777 498.079967 423.905527 C 498.796112 421.353444 498.079967 415.520111 495.931529 407.134695 C 494.141164 398.384696 492.3508 392.915946 490.918508 391.09303 C 489.844289 387.81178 486.621633 385.988863 481.966685 385.988863 C 477.311737 385.988863 459.408091 385.62428 427.897674 384.895113 L 372.038299 384.895113 L 349.121632 263.124288 C 316.895069 97.603466 294.694548 -5.57361 282.161996 -47.136108 C 263.900277 -103.646521 240.625538 -145.573601 211.979704 -172.917349 C 187.272673 -194.427764 162.923714 -205.00068 138.932828 -205.00068 C 117.806526 -205.00068 98.470589 -198.802764 80.925015 -186.042348 C 63.737515 -173.281932 55.143765 -155.41735 55.143765 -132.084019 C 55.143765 -107.292354 61.947151 -89.427771 75.911995 -78.125689 C 89.876838 -66.823606 103.841682 -60.990273 118.164599 -60.990273 C 147.168506 -60.990273 161.849495 -74.844439 161.849495 -102.917354 C 161.849495 -115.67777 158.268766 -126.615269 151.107308 -136.094435 C 143.587776 -145.209018 135.710172 -152.500684 127.116422 -156.875684 Z M 118.164599 -161.97985 "
     transform="matrix(0.0109091, 0, 0, -0.0107143, 140.249994, 153.803564)"
     id="path81" />
  <path
     fill="none"
     stroke-width="2"
     stroke-linecap="round"
     stroke-linejoin="round"
     stroke="rgb(65.098572%, 50.19989%, 72.158813%)"
     stroke-opacity="1"
     stroke-miterlimit="10"
     d="M 356.697932 141.697923 C 360.838557 141.562506 365.838557 144.312506 368.932307 146.958339 C 372.020849 149.619798 374.770849 153.651048 375.250016 157.609382 C 375.718766 161.578132 374.062516 167.171882 371.770849 170.750007 C 369.479182 174.328132 365.510432 177.838549 361.520848 179.109382 C 357.531265 180.369799 351.57814 179.802091 347.848973 178.348966 C 344.119806 176.901049 341.130223 173.817716 339.140639 170.390632 C 337.151056 166.968757 335.171889 161.98959 335.921889 157.791673 C 336.671889 153.598965 339.588556 147.921881 343.661473 145.229173 C 347.729181 142.541673 356.901057 141.880214 360.348973 141.640631 C 363.802098 141.401048 364.380224 143.312506 364.348974 143.802089 M 349.411473 143.531256 C 352.85939 141.567714 358.39064 140.671881 362.260432 141.859381 C 366.14064 143.062506 370.380224 146.937506 372.651057 150.682298 C 374.921891 154.421881 376.598974 160.291673 375.890641 164.312507 C 375.182307 168.328132 371.60939 172.052091 368.369807 174.812507 C 365.14064 177.562507 360.562515 180.500008 356.489598 180.848966 C 352.432306 181.208341 347.161473 179.317716 343.989598 176.932299 C 340.817723 174.552091 338.421889 170.880215 337.468764 166.55209 C 336.510431 162.20834 336.338556 155.078131 338.270847 150.911465 C 340.208348 146.750006 347.182306 143.031256 349.067723 141.588548 C 350.958348 140.140631 349.447931 141.750006 349.588556 142.218756 "
     transform="matrix(0.75, 0, 0, 0.75, 0, 0)"
     id="path83" />
  <path
     fill-rule="nonzero"
     fill="rgb(0%, 0%, 0%)"
     fill-opacity="1"
     stroke-width="11"
     stroke-linecap="butt"
     stroke-linejoin="miter"
     stroke="rgb(0%, 0%, 0%)"
     stroke-opacity="0.1333"
     stroke-miterlimit="4"
     d="M 118.165072 -161.979733 C 119.23929 -161.979733 121.387728 -162.7089 123.894238 -164.167233 C 126.758822 -165.260983 130.339551 -166.354733 134.994499 -167.0839 C 139.649447 -167.813066 143.588249 -168.17765 147.168978 -168.17765 C 155.762728 -168.17765 163.640333 -163.80265 171.159864 -155.05265 C 178.321322 -146.302651 183.692416 -136.823485 186.915072 -125.885986 C 193.718458 -108.021404 205.176791 -56.97974 220.932 26.874421 C 237.045281 111.093165 252.442417 190.93691 267.123406 267.134821 C 281.804396 342.96815 288.965854 381.249397 288.965854 381.978564 L 288.965854 384.89523 L 242.058302 384.89523 C 210.547885 384.89523 194.076531 385.624397 191.928093 387.08273 C 189.421583 388.905646 187.989291 392.186896 187.989291 396.926479 L 195.150749 424.999394 C 196.224968 428.280644 199.089552 430.10356 203.028354 430.10356 C 206.967156 430.10356 222.722364 430.468144 249.935906 430.832727 C 282.162469 430.832727 297.917677 431.19731 297.917677 431.926477 C 297.917677 433.38481 301.140334 450.155642 306.8695 481.87439 C 312.95674 513.957721 316.895542 533.280637 319.04398 539.843136 C 343.751011 649.947296 392.448928 704.999375 465.137731 704.999375 C 489.844762 703.541042 509.896846 696.249376 526.010127 683.124377 C 542.123408 669.634794 550.001013 652.134795 550.001013 629.895214 C 550.001013 605.832715 542.839554 588.6973 528.87471 578.124384 C 514.909866 567.186884 500.945023 561.718135 486.980179 560.988968 C 457.618199 560.988968 442.93721 574.843134 442.93721 602.916049 C 442.93721 615.676465 446.517939 626.613964 454.03747 636.09313 C 461.198929 645.207713 469.434606 652.499379 478.028356 656.874378 L 486.980179 661.978545 C 476.237991 665.988961 466.211949 668.176461 456.902054 668.176461 C 449.024449 668.176461 441.504918 664.530628 433.985387 657.968128 C 426.823928 651.405629 421.810907 641.926463 418.946324 629.895214 C 414.291376 610.572298 408.920282 584.686883 402.833043 551.874385 C 397.103876 519.426471 391.732782 491.71814 387.077834 469.113974 C 382.422886 446.509809 379.916376 434.47856 379.916376 433.020227 C 379.916376 431.561894 398.178095 430.832727 435.059605 430.832727 C 465.137731 430.832727 482.325231 430.832727 486.980179 430.10356 C 491.635127 429.374394 495.215856 427.186894 498.080439 423.905644 C 498.796585 421.353561 498.080439 415.520228 495.932002 407.134812 C 494.141637 398.384812 492.351273 392.916063 490.918981 391.093146 C 489.844762 387.811897 486.622106 385.98898 481.967158 385.98898 C 477.31221 385.98898 459.408564 385.624397 427.898147 384.89523 L 372.038772 384.89523 L 349.122105 263.124405 C 316.895542 97.603583 294.695021 -5.573494 282.162469 -47.135991 C 263.90075 -103.646404 240.62601 -145.573484 211.980177 -172.917233 C 187.273145 -194.427648 162.924187 -205.000564 138.933301 -205.000564 C 117.806999 -205.000564 98.471061 -198.802647 80.925488 -186.042232 C 63.737988 -173.281816 55.144238 -155.417234 55.144238 -132.083902 C 55.144238 -107.292237 61.947623 -89.427655 75.912467 -78.125572 C 89.877311 -66.82349 103.842155 -60.990157 118.165072 -60.990157 C 147.168978 -60.990157 161.849968 -74.844322 161.849968 -102.917237 C 161.849968 -115.677653 158.269239 -126.615152 151.10778 -136.094318 C 143.588249 -145.208901 135.710645 -152.500567 127.116895 -156.875567 Z M 118.165072 -161.979733 "
     transform="matrix(0.0109091, 0, 0, -0.0107143, 263.999989, 123.803565)"
     id="path85" />
  <path
     fill-rule="nonzero"
     fill="rgb(0%, 0%, 0%)"
     fill-opacity="1"
     stroke-width="11.176001"
     stroke-linecap="butt"
     stroke-linejoin="miter"
     stroke="rgb(0%, 0%, 0%)"
     stroke-opacity="0.1333"
     stroke-miterlimit="4"
     d="M 228.103987 637.029136 C 205.184454 637.029136 193.178985 638.502667 192.087579 641.081346 C 191.359974 642.186495 190.996172 645.133557 190.996172 648.817385 C 190.996172 665.026229 194.634193 676.077713 201.910235 681.971838 C 203.365444 682.708603 208.458673 683.076986 216.826122 683.076986 C 252.84253 680.866689 295.407376 680.129924 344.156859 680.129924 C 438.017802 680.129924 491.860513 680.866689 506.048795 683.076986 L 518.054265 683.076986 C 522.056088 679.024775 523.875099 676.077713 523.875099 673.867416 C 523.875099 672.025502 523.511297 666.131377 522.056088 655.816659 C 518.781869 645.870323 515.50765 639.607815 512.961035 637.029136 L 475.125617 637.029136 C 428.922749 636.29237 402.001393 633.345308 393.997747 627.819566 C 389.26832 625.240886 384.538892 616.031316 380.173267 599.822472 C 375.44384 583.982012 352.888109 495.938521 312.869878 336.060384 C 302.319616 292.591213 291.041751 246.543362 279.036282 197.916832 C 267.030812 149.290302 257.93576 112.820404 252.114926 88.138756 L 243.019873 52.037241 C 243.019873 49.458561 245.93029 47.98503 252.114926 47.98503 C 257.93576 47.98503 277.581073 47.248265 311.050867 46.143116 L 328.149566 46.143116 C 349.250088 46.143116 366.348787 46.511499 379.081861 46.879882 C 391.814934 47.616647 407.822227 49.826944 427.831343 53.879155 C 447.840459 57.931366 464.575355 63.825491 478.036033 71.929913 C 491.496711 80.034334 506.048795 91.454201 522.056088 105.821131 C 538.063381 120.556443 551.887861 138.975583 563.89333 161.078551 C 574.807393 180.971223 584.63005 203.442574 594.088905 228.124222 C 603.183958 252.80587 609.004791 266.804416 610.823802 270.119862 C 614.461823 271.961776 619.918854 273.066924 627.922501 273.066924 L 641.019377 273.066924 C 645.0212 267.172799 646.84021 263.488971 646.84021 262.01544 C 646.84021 260.541909 640.291772 241.01762 626.831094 203.074191 C 613.734219 165.130762 598.818332 124.977036 583.174842 82.981397 C 567.167549 40.985757 558.436299 16.304109 556.98109 8.936453 C 555.525882 5.621008 554.434475 3.779094 552.979267 3.042328 C 551.524059 2.305562 546.430829 1.200414 536.971974 0.0952655 C 527.51312 -1.378266 513.324838 -1.746649 494.043326 -1.009883 C 486.767284 -1.009883 461.301136 -1.009883 418.008686 -1.009883 C 374.716235 -1.009883 333.242795 -0.6415 293.952168 0.0952655 L 116.052939 0.0952655 C 60.027414 0.0952655 32.014652 3.410711 32.014652 10.041601 C 32.014652 14.830578 32.742256 19.251171 33.833663 24.040148 C 37.471684 36.565163 40.745903 43.564437 44.020122 45.037968 C 46.566736 45.774733 51.659966 46.143116 58.936008 46.143116 L 65.120644 46.143116 C 82.946947 46.143116 102.956063 46.879882 125.147991 49.090179 C 134.243044 50.932093 140.791482 54.984303 144.065701 60.878428 C 145.884711 63.825491 169.89565 156.289575 216.098518 339.007446 C 261.937583 521.725318 284.857115 617.87323 284.857115 627.819566 C 284.857115 632.608542 265.939406 635.555604 228.103987 637.029136 Z M 228.103987 637.029136 "
     transform="matrix(0.0107373, 0, 0, -0.0106038, 17.249999, 15.493198)"
     id="path87" />
  <path
     fill-rule="nonzero"
     fill="rgb(0%, 0%, 0%)"
     fill-opacity="1"
     stroke-width="15.807639"
     stroke-linecap="butt"
     stroke-linejoin="miter"
     stroke="rgb(0%, 0%, 0%)"
     stroke-opacity="0.0941"
     stroke-miterlimit="4"
     d="M 95.913384 584.84984 C 133.47711 639.039106 184.419697 666.133739 249.255717 666.133739 C 281.159155 666.133739 313.062593 657.275878 344.966032 640.081207 C 376.86947 622.886536 403.112621 592.144549 423.180913 547.855246 C 447.880349 492.623879 460.230067 416.550487 460.230067 320.156121 C 460.230067 216.467046 445.822063 137.788401 417.006054 83.078085 C 403.627193 54.941351 385.102616 32.536174 361.946894 15.862554 C 338.791173 -0.811066 318.208309 -11.232079 301.227447 -14.879433 C 283.732013 -19.047838 266.751151 -21.132041 249.770288 -22.174142 C 232.789426 -22.174142 215.293992 -20.08994 197.798558 -15.921535 C 180.817696 -11.75313 160.234832 -1.332117 137.079111 15.862554 C 113.923389 33.578275 95.398812 55.462401 82.019951 83.078085 C 53.203942 137.788401 38.795938 216.467046 38.795938 320.156121 C 38.795938 435.829361 57.835086 524.407968 95.913384 584.84984 Z M 320.781167 596.834005 C 301.227447 618.197081 277.557154 629.139144 249.770288 629.139144 C 221.983423 629.139144 197.798558 618.197081 178.244838 596.834005 C 161.263975 579.639334 150.457972 555.671005 144.797685 524.929018 C 139.651969 494.187031 137.079111 430.097804 137.079111 333.182387 C 137.079111 227.409109 139.651969 158.109375 144.797685 124.762135 C 150.457972 91.414895 162.293119 65.362363 180.817696 46.08349 C 199.856844 25.762516 222.497994 15.862554 249.770288 15.862554 C 276.528011 15.862554 299.169161 25.762516 318.208309 46.08349 C 337.247458 65.883414 349.082605 94.020148 354.22832 129.972641 C 358.859465 165.925135 361.432323 233.661717 361.946894 333.182387 C 361.946894 429.576753 359.374036 493.14493 354.22832 523.886917 C 348.568033 554.628904 337.76203 579.118284 320.781167 596.834005 Z M 320.781167 596.834005 "
     transform="matrix(0.00759127, 0, 0, -0.00749687, 24.916427, 17.083763)"
     id="path89" />
  <path
     fill-rule="nonzero"
     fill="rgb(0%, 0%, 0%)"
     fill-opacity="1"
     stroke-width="11.176001"
     stroke-linecap="butt"
     stroke-linejoin="miter"
     stroke="rgb(0%, 0%, 0%)"
     stroke-opacity="0.1294"
     stroke-miterlimit="4"
     d="M 228.104453 636.943006 C 205.18492 636.943006 193.179451 638.521038 192.088044 640.888086 C 191.36044 642.466117 190.996638 644.833165 190.996638 649.172753 C 190.996638 664.953071 194.634659 675.999295 201.910701 681.916914 C 203.365909 682.70593 208.459139 683.100438 216.826587 683.100438 C 252.842996 681.127898 295.407842 679.944374 344.157324 679.944374 C 438.018267 679.944374 491.860979 681.127898 506.049261 683.100438 L 518.054731 683.100438 C 522.056554 679.155358 523.875564 675.999295 523.875564 674.026755 C 523.875564 672.054215 523.511762 666.136595 522.056554 655.879388 C 518.782335 646.016689 515.508116 639.704562 512.961501 636.943006 L 475.126082 636.943006 C 428.923215 636.15399 402.001859 633.392434 393.998213 627.869323 C 389.268785 625.502275 384.539358 616.034084 380.173733 599.859257 C 375.444305 584.078939 352.888575 496.103662 312.870343 335.933428 C 302.320082 292.537552 291.042217 246.774628 279.036747 197.85564 C 267.031278 149.33116 257.936225 112.64192 252.115392 88.182426 L 243.020339 51.887693 C 243.020339 49.520645 245.930756 47.942613 252.115392 47.942613 C 257.936225 47.942613 277.581539 47.153597 311.051333 45.970073 L 328.150032 45.970073 C 349.250554 45.970073 366.349253 46.364581 379.082326 47.153597 C 391.8154 47.548105 407.822693 49.915153 427.831808 53.860233 C 447.840924 57.805312 464.575821 64.11744 478.036499 72.007599 C 491.497177 79.897758 506.049261 91.338489 522.056554 105.935284 C 538.063846 120.532079 551.888326 139.073953 563.893796 161.166399 C 574.807859 180.891798 584.630516 203.378752 594.089371 227.838246 C 603.184423 252.692247 609.005257 266.500026 610.824267 270.050598 C 614.462289 272.023138 619.91932 272.812154 627.922966 272.812154 L 641.019842 272.812154 C 645.021665 266.894534 646.840676 263.343962 646.840676 262.160439 C 646.840676 260.582407 640.292238 240.857008 626.83156 202.984244 C 613.734684 165.111479 598.818798 124.871666 583.175307 83.053822 C 567.168015 40.84147 558.436764 16.381976 556.981556 8.886325 C 555.526347 5.730261 554.434941 3.757721 552.979733 2.968705 C 551.524524 2.179689 546.431295 1.390673 536.97244 -0.187359 C 527.513585 -1.370883 513.325303 -1.765391 494.043792 -0.976375 C 486.76775 -0.976375 461.301602 -0.976375 418.009152 -0.976375 C 374.716701 -0.976375 333.243261 -0.581867 293.952634 -0.187359 L 116.053404 -0.187359 C 60.02788 -0.187359 32.015118 3.363213 32.015118 10.069848 C 32.015118 14.803944 32.742722 19.143532 33.834128 23.877627 C 37.472149 36.501882 40.746368 43.603026 44.020587 45.181057 C 46.567202 45.575565 51.660432 45.970073 58.936474 45.970073 L 65.121109 45.970073 C 82.947413 45.970073 102.956528 47.153597 125.148457 49.126137 C 134.243509 51.098677 140.791947 55.043757 144.066166 60.961376 C 145.885177 63.722932 169.896116 156.432304 216.098983 339.089492 C 261.938048 521.74668 284.857581 618.006624 284.857581 627.869323 C 284.857581 632.603418 265.939872 635.759482 228.104453 636.943006 Z M 228.104453 636.943006 "
     transform="matrix(0.0107373, 0, 0, -0.00990157, 137.249994, 15.01377)"
     id="path91" />
  <path
     fill-rule="nonzero"
     fill="rgb(0%, 0%, 0%)"
     fill-opacity="1"
     stroke-width="15.807639"
     stroke-linecap="butt"
     stroke-linejoin="miter"
     stroke="rgb(0%, 0%, 0%)"
     stroke-opacity="0.0902"
     stroke-miterlimit="4"
     d="M 213.235447 577.948771 L 199.856586 572.926746 C 190.594298 569.578729 177.215436 566.230712 160.234574 562.882696 C 142.73914 559.534679 123.18542 557.302667 102.087985 556.186662 L 83.048836 556.186662 L 83.048836 601.942892 L 102.087985 601.942892 C 133.476851 603.058898 162.29286 608.080923 189.050583 617.008968 C 215.808305 625.937013 234.332882 633.749052 245.138886 641.003088 C 255.430318 648.257125 265.207178 655.511161 272.925752 662.765198 C 274.469466 664.997209 278.586039 666.113215 284.760898 666.113215 C 290.935757 666.113215 296.596045 663.881203 302.256332 659.975184 L 302.256332 360.88568 L 302.770904 61.238173 C 307.916619 56.216148 311.518621 53.426134 315.120622 51.752125 C 318.208051 50.63612 326.441197 49.520114 338.790915 47.846106 C 351.655204 46.7301 372.238068 46.172097 401.054077 46.172097 L 426.782656 46.172097 L 426.782656 -0.142136 L 415.976653 -0.142136 C 402.08322 2.089876 349.082346 3.205881 256.974032 3.205881 C 166.409433 3.205881 113.923131 2.089876 100.029698 -0.142136 L 88.194552 -0.142136 L 88.194552 46.172097 L 113.923131 46.172097 C 128.845707 46.172097 141.195425 46.172097 152.001429 46.172097 C 162.807432 46.172097 171.040577 46.172097 177.215436 46.7301 C 182.875724 47.846106 188.536011 48.404109 193.167156 50.078117 C 197.7983 51.194123 200.371158 51.752125 200.885729 51.752125 C 201.914873 51.752125 203.458587 53.426134 207.060588 56.774151 C 210.148018 60.122167 212.206304 61.796176 213.235447 61.238173 Z M 213.235447 577.948771 "
     transform="matrix(0.00759127, 0, 0, -0.00700041, 144.916429, 16.499005)"
     id="path93" />
  <path
     fill-rule="nonzero"
     fill="rgb(0%, 0%, 0%)"
     fill-opacity="1"
     stroke-width="11.176001"
     stroke-linecap="butt"
     stroke-linejoin="miter"
     stroke="rgb(0%, 0%, 0%)"
     stroke-opacity="0.1294"
     stroke-miterlimit="4"
     d="M 228.104933 636.943006 C 205.1854 636.943006 193.179931 638.521038 192.088524 640.888086 C 191.36092 642.466117 190.997118 644.833165 190.997118 649.172753 C 190.997118 664.953071 194.635139 675.999295 201.911181 681.916914 C 203.36639 682.70593 208.459619 683.100438 216.827068 683.100438 C 252.843476 681.127898 295.408322 679.944374 344.157804 679.944374 C 438.018748 679.944374 491.861459 681.127898 506.049741 683.100438 L 518.055211 683.100438 C 522.057034 679.155358 523.876045 675.999295 523.876045 674.026755 C 523.876045 672.054215 523.512242 666.136595 522.057034 655.879388 C 518.782815 646.016689 515.508596 639.704562 512.961981 636.943006 L 475.126562 636.943006 C 428.923695 636.15399 402.002339 633.392434 393.998693 627.869323 C 389.269266 625.502275 384.539838 616.034084 380.174213 599.859257 C 375.444786 584.078939 352.889055 496.103662 312.870823 335.933428 C 302.320562 292.537552 291.042697 246.774628 279.037228 197.85564 C 267.031758 149.33116 257.936706 112.64192 252.115872 88.182426 L 243.020819 51.887693 C 243.020819 49.520645 245.931236 47.942613 252.115872 47.942613 C 257.936706 47.942613 277.582019 47.153597 311.051813 45.970073 L 328.150512 45.970073 C 349.251034 45.970073 366.349733 46.364581 379.082807 47.153597 C 391.81588 47.548105 407.823173 49.915153 427.832289 53.860233 C 447.841404 57.805312 464.576301 64.11744 478.036979 72.007599 C 491.497657 79.897758 506.049741 91.338489 522.057034 105.935284 C 538.064327 120.532079 551.888807 139.073953 563.894276 161.166399 C 574.808339 180.891798 584.630996 203.378752 594.089851 227.838246 C 603.184903 252.692247 609.005737 266.500026 610.824748 270.050598 C 614.462769 272.023138 619.9198 272.812154 627.923447 272.812154 L 641.020322 272.812154 C 645.022146 266.894534 646.841156 263.343962 646.841156 262.160439 C 646.841156 260.582407 640.292718 240.857008 626.83204 202.984244 C 613.735165 165.111479 598.819278 124.871666 583.175788 83.053822 C 567.168495 40.84147 558.437245 16.381976 556.982036 8.886325 C 555.526828 5.730261 554.435421 3.757721 552.980213 2.968705 C 551.525005 2.179689 546.431775 1.390673 536.97292 -0.187359 C 527.514066 -1.370883 513.325783 -1.765391 494.044272 -0.976375 C 486.76823 -0.976375 461.302082 -0.976375 418.009632 -0.976375 C 374.717181 -0.976375 333.243741 -0.581867 293.953114 -0.187359 L 116.053884 -0.187359 C 60.02836 -0.187359 32.015598 3.363213 32.015598 10.069848 C 32.015598 14.803944 32.743202 19.143532 33.834609 23.877627 C 37.47263 36.501882 40.746849 43.603026 44.021068 45.181057 C 46.567682 45.575565 51.660912 45.970073 58.936954 45.970073 L 65.12159 45.970073 C 82.947893 45.970073 102.957009 47.153597 125.148937 49.126137 C 134.24399 51.098677 140.792428 55.043757 144.066647 60.961376 C 145.885657 63.722932 169.896596 156.432304 216.099463 339.089492 C 261.938529 521.74668 284.858061 618.006624 284.858061 627.869323 C 284.858061 632.603418 265.940352 635.759482 228.104933 636.943006 Z M 228.104933 636.943006 "
     transform="matrix(0.0107373, 0, 0, -0.00990157, 260.999989, 15.01377)"
     id="path95" />
  <path
     fill-rule="nonzero"
     fill="rgb(0%, 0%, 0%)"
     fill-opacity="1"
     stroke-width="15.807639"
     stroke-linecap="butt"
     stroke-linejoin="miter"
     stroke="rgb(0%, 0%, 0%)"
     stroke-opacity="0.0902"
     stroke-miterlimit="4"
     d="M 108.781888 428.962022 C 90.771883 428.962022 76.87845 435.100053 66.072447 446.818112 C 55.266443 459.094174 50.120727 473.602247 50.120727 490.900334 C 50.120727 538.330572 67.616161 579.064777 103.121601 614.218954 C 138.112469 648.815128 182.365625 666.113215 234.851927 666.113215 C 295.571374 666.113215 346.513962 647.141119 387.165117 609.754931 C 427.816272 572.926746 448.399136 524.380502 448.913707 465.232205 C 448.913707 436.216059 442.224277 408.873921 428.845415 383.205792 C 415.466554 356.97966 399.514835 334.101545 380.990258 315.12945 C 362.465681 295.599352 335.707958 271.047228 301.231662 240.915077 C 277.046797 220.268973 243.599644 189.578818 200.890202 148.844614 L 142.229042 93.044333 L 217.871065 91.928327 C 322.843669 91.928327 378.4174 93.602336 385.106831 96.950353 C 389.737975 98.066358 397.456549 128.19851 408.777124 186.230802 L 408.777124 189.020816 L 448.913707 189.020816 L 448.913707 186.230802 C 448.399136 183.99879 443.767991 153.866639 436.049418 95.276344 C 427.816272 36.128047 423.185128 5.437893 421.126842 3.205881 L 421.126842 -0.142136 L 50.120727 -0.142136 L 50.120727 31.106022 C 50.120727 35.570044 52.179014 40.592069 55.781015 46.172097 C 59.897588 51.194123 70.189019 62.912182 86.140739 80.768271 C 105.179887 102.530381 122.16075 120.944473 136.054182 137.126555 C 142.229042 143.822588 153.549616 156.09865 170.015907 173.95474 C 186.482198 191.81083 197.802773 204.086891 203.977632 210.782925 C 210.152491 217.478959 219.41478 228.639015 232.793641 244.263093 C 246.172502 259.329169 255.434791 270.489225 261.095078 277.743262 C 266.240794 285.555301 273.959368 295.599352 284.250799 307.875413 C 294.02766 320.709478 301.231662 331.311531 304.833663 340.239576 C 308.950236 348.609618 314.095952 358.095666 319.756239 369.255722 C 325.931098 379.857775 330.562242 390.459829 333.1351 401.061882 C 335.707958 411.663935 337.766245 421.707986 339.824531 431.194033 C 341.882817 440.122078 342.91196 451.282134 342.91196 464.116199 C 342.91196 505.966409 331.591385 542.236592 308.950236 572.926746 C 286.309086 603.6169 253.891076 619.240979 212.210777 619.240979 C 190.084199 619.240979 170.530479 613.102948 154.064188 601.942892 C 137.083326 590.782836 125.762751 579.62278 119.07332 569.020726 C 112.383889 558.418673 108.781888 551.722639 108.781888 550.048631 C 108.781888 549.490628 110.840175 548.932625 113.927604 548.932625 C 125.762751 548.932625 138.112469 544.468603 150.976758 534.982555 C 163.841048 525.496508 170.015907 510.430432 170.015907 489.226325 C 170.015907 472.486241 164.870191 458.536171 154.064188 446.818112 C 143.258185 435.658056 128.335609 429.520025 108.781888 428.962022 Z M 108.781888 428.962022 "
     transform="matrix(0.00759127, 0, 0, -0.00700041, 268.666395, 16.499005)"
     id="path97" />
</svg>
